<mxfile host="app.diagrams.net" agent="Mozilla/5.0 (Windows NT 10.0; Win64; x64) AppleWebKit/537.36 (KHTML, like Gecko) Chrome/141.0.0.0 Safari/537.36" version="27.0.5">
  <diagram name="Страница — 1" id="D7yGDPZh43WwIp_CKNKW">
    <mxGraphModel dx="1186" dy="755" grid="1" gridSize="10" guides="1" tooltips="1" connect="1" arrows="1" fold="1" page="1" pageScale="1" pageWidth="1100" pageHeight="850" math="0" shadow="0">
      <root>
        <mxCell id="0" />
        <mxCell id="1" parent="0" />
        <mxCell id="RAt86igsW2J8RpWUPt7G-1" value="" style="endArrow=none;dashed=1;html=1;rounded=0;" edge="1" parent="1">
          <mxGeometry width="50" height="50" relative="1" as="geometry">
            <mxPoint x="410" y="840" as="sourcePoint" />
            <mxPoint x="410" y="110" as="targetPoint" />
          </mxGeometry>
        </mxCell>
        <mxCell id="RAt86igsW2J8RpWUPt7G-2" value="Пользователь" style="text;align=center;fontStyle=1;verticalAlign=middle;spacingLeft=3;spacingRight=3;strokeColor=none;rotatable=0;points=[[0,0.5],[1,0.5]];portConstraint=eastwest;html=1;" vertex="1" parent="1">
          <mxGeometry x="280" y="110" width="80" height="26" as="geometry" />
        </mxCell>
        <mxCell id="RAt86igsW2J8RpWUPt7G-3" value="Система генеалогического дерева" style="text;align=center;fontStyle=1;verticalAlign=middle;spacingLeft=3;spacingRight=3;strokeColor=none;rotatable=0;points=[[0,0.5],[1,0.5]];portConstraint=eastwest;html=1;" vertex="1" parent="1">
          <mxGeometry x="500" y="110" width="80" height="26" as="geometry" />
        </mxCell>
        <mxCell id="RAt86igsW2J8RpWUPt7G-4" value="" style="ellipse;html=1;shape=startState;fillColor=#000000;strokeColor=none;" vertex="1" parent="1">
          <mxGeometry x="290" y="150" width="30" height="30" as="geometry" />
        </mxCell>
        <mxCell id="RAt86igsW2J8RpWUPt7G-5" value="" style="edgeStyle=orthogonalEdgeStyle;html=1;verticalAlign=bottom;endArrow=open;endSize=8;strokeColor=#404040;rounded=0;" edge="1" parent="1" source="RAt86igsW2J8RpWUPt7G-4">
          <mxGeometry relative="1" as="geometry">
            <mxPoint x="305" y="240" as="targetPoint" />
          </mxGeometry>
        </mxCell>
        <mxCell id="RAt86igsW2J8RpWUPt7G-6" value="Получить сведения о персоне" style="rounded=1;whiteSpace=wrap;html=1;" vertex="1" parent="1">
          <mxGeometry x="245" y="240" width="120" height="60" as="geometry" />
        </mxCell>
        <mxCell id="RAt86igsW2J8RpWUPt7G-7" value="" style="endArrow=open;endFill=1;endSize=12;html=1;rounded=0;exitX=1;exitY=0.5;exitDx=0;exitDy=0;" edge="1" parent="1" source="RAt86igsW2J8RpWUPt7G-6">
          <mxGeometry width="160" relative="1" as="geometry">
            <mxPoint x="370" y="280" as="sourcePoint" />
            <mxPoint x="490" y="270" as="targetPoint" />
          </mxGeometry>
        </mxCell>
        <mxCell id="RAt86igsW2J8RpWUPt7G-8" value="&lt;span style=&quot;line-height: 107%;&quot;&gt;Отображает пустую форму для ввода данных&amp;nbsp;&lt;/span&gt;" style="rounded=1;whiteSpace=wrap;html=1;strokeColor=default;align=center;verticalAlign=middle;fontFamily=Helvetica;fontSize=12;fontColor=default;fillColor=default;" vertex="1" parent="1">
          <mxGeometry x="490" y="240" width="120" height="60" as="geometry" />
        </mxCell>
        <mxCell id="RAt86igsW2J8RpWUPt7G-9" value="" style="endArrow=open;endFill=1;endSize=12;html=1;rounded=0;exitX=0;exitY=0.75;exitDx=0;exitDy=0;entryX=1;entryY=0.25;entryDx=0;entryDy=0;" edge="1" parent="1" source="RAt86igsW2J8RpWUPt7G-8" target="RAt86igsW2J8RpWUPt7G-10">
          <mxGeometry width="160" relative="1" as="geometry">
            <mxPoint x="375" y="280" as="sourcePoint" />
            <mxPoint x="380" y="340" as="targetPoint" />
          </mxGeometry>
        </mxCell>
        <mxCell id="RAt86igsW2J8RpWUPt7G-10" value="Вводит известные данные о персоне" style="rounded=1;whiteSpace=wrap;html=1;" vertex="1" parent="1">
          <mxGeometry x="245" y="330" width="120" height="60" as="geometry" />
        </mxCell>
        <mxCell id="RAt86igsW2J8RpWUPt7G-12" value="" style="endArrow=open;endFill=1;endSize=12;html=1;rounded=0;exitX=1;exitY=0.661;exitDx=0;exitDy=0;entryX=0;entryY=0.5;entryDx=0;entryDy=0;exitPerimeter=0;" edge="1" parent="1" source="RAt86igsW2J8RpWUPt7G-10">
          <mxGeometry width="160" relative="1" as="geometry">
            <mxPoint x="500" y="295" as="sourcePoint" />
            <mxPoint x="530" y="370" as="targetPoint" />
          </mxGeometry>
        </mxCell>
        <mxCell id="RAt86igsW2J8RpWUPt7G-19" value="Выбирает нужную персону" style="rounded=1;whiteSpace=wrap;html=1;" vertex="1" parent="1">
          <mxGeometry x="270" y="600" width="120" height="60" as="geometry" />
        </mxCell>
        <mxCell id="RAt86igsW2J8RpWUPt7G-20" value="" style="endArrow=open;endFill=1;endSize=12;html=1;rounded=0;exitX=1;exitY=0.5;exitDx=0;exitDy=0;entryX=0.5;entryY=0;entryDx=0;entryDy=0;" edge="1" parent="1" source="RAt86igsW2J8RpWUPt7G-21" target="RAt86igsW2J8RpWUPt7G-41">
          <mxGeometry width="160" relative="1" as="geometry">
            <mxPoint x="385" y="700" as="sourcePoint" />
            <mxPoint x="730" y="670" as="targetPoint" />
            <Array as="points">
              <mxPoint x="780" y="480" />
            </Array>
          </mxGeometry>
        </mxCell>
        <mxCell id="RAt86igsW2J8RpWUPt7G-21" value="" style="rhombus;whiteSpace=wrap;html=1;" vertex="1" parent="1">
          <mxGeometry x="550" y="440" width="80" height="80" as="geometry" />
        </mxCell>
        <mxCell id="RAt86igsW2J8RpWUPt7G-22" value="Выполняет поиск персоны" style="rounded=1;whiteSpace=wrap;html=1;" vertex="1" parent="1">
          <mxGeometry x="530" y="340" width="120" height="60" as="geometry" />
        </mxCell>
        <mxCell id="RAt86igsW2J8RpWUPt7G-23" value="" style="endArrow=open;endFill=1;endSize=12;html=1;rounded=0;exitX=0.5;exitY=1;exitDx=0;exitDy=0;entryX=0.5;entryY=0;entryDx=0;entryDy=0;" edge="1" parent="1" source="RAt86igsW2J8RpWUPt7G-22" target="RAt86igsW2J8RpWUPt7G-21">
          <mxGeometry width="160" relative="1" as="geometry">
            <mxPoint x="640" y="560" as="sourcePoint" />
            <mxPoint x="640" y="650" as="targetPoint" />
            <Array as="points" />
          </mxGeometry>
        </mxCell>
        <mxCell id="RAt86igsW2J8RpWUPt7G-24" value="[Нет]" style="text;html=1;align=center;verticalAlign=middle;whiteSpace=wrap;rounded=0;" vertex="1" parent="1">
          <mxGeometry x="610" y="450" width="190" height="30" as="geometry" />
        </mxCell>
        <mxCell id="RAt86igsW2J8RpWUPt7G-25" value="[Персона найдена]" style="endArrow=open;endFill=1;endSize=12;html=1;rounded=0;exitX=0.5;exitY=1;exitDx=0;exitDy=0;fontSize=12;entryX=0.5;entryY=0;entryDx=0;entryDy=0;" edge="1" parent="1" source="RAt86igsW2J8RpWUPt7G-21" target="RAt86igsW2J8RpWUPt7G-26">
          <mxGeometry width="160" relative="1" as="geometry">
            <mxPoint x="580" y="570" as="sourcePoint" />
            <mxPoint x="570" y="750" as="targetPoint" />
            <Array as="points" />
          </mxGeometry>
        </mxCell>
        <mxCell id="RAt86igsW2J8RpWUPt7G-26" value="Отображает список персон с данными совпадающими с введенными пользователем" style="rounded=1;whiteSpace=wrap;html=1;" vertex="1" parent="1">
          <mxGeometry x="520" y="590" width="140" height="80" as="geometry" />
        </mxCell>
        <mxCell id="RAt86igsW2J8RpWUPt7G-27" value="" style="endArrow=open;endFill=1;endSize=12;html=1;rounded=0;exitX=0;exitY=0.5;exitDx=0;exitDy=0;" edge="1" parent="1">
          <mxGeometry width="160" relative="1" as="geometry">
            <mxPoint x="520" y="630" as="sourcePoint" />
            <mxPoint x="390" y="630" as="targetPoint" />
            <Array as="points" />
          </mxGeometry>
        </mxCell>
        <mxCell id="RAt86igsW2J8RpWUPt7G-29" value="" style="endArrow=open;endFill=1;endSize=12;html=1;rounded=0;exitX=1;exitY=0.75;exitDx=0;exitDy=0;entryX=0.071;entryY=0;entryDx=0;entryDy=0;entryPerimeter=0;" edge="1" parent="1" source="RAt86igsW2J8RpWUPt7G-19" target="RAt86igsW2J8RpWUPt7G-45">
          <mxGeometry width="160" relative="1" as="geometry">
            <mxPoint x="380" y="869.6600000000001" as="sourcePoint" />
            <mxPoint x="520" y="760" as="targetPoint" />
          </mxGeometry>
        </mxCell>
        <mxCell id="RAt86igsW2J8RpWUPt7G-39" value="" style="ellipse;html=1;shape=endState;fillColor=#000000;strokeColor=default;" vertex="1" parent="1">
          <mxGeometry x="575" y="810" width="30" height="30" as="geometry" />
        </mxCell>
        <mxCell id="RAt86igsW2J8RpWUPt7G-40" value="" style="endArrow=open;endFill=1;endSize=12;html=1;rounded=0;entryX=0.5;entryY=0;entryDx=0;entryDy=0;" edge="1" parent="1">
          <mxGeometry width="160" relative="1" as="geometry">
            <mxPoint x="590" y="780" as="sourcePoint" />
            <mxPoint x="590" y="810" as="targetPoint" />
          </mxGeometry>
        </mxCell>
        <mxCell id="RAt86igsW2J8RpWUPt7G-41" value="Сообщение об отсутствии персон с такими данными" style="rounded=1;whiteSpace=wrap;html=1;" vertex="1" parent="1">
          <mxGeometry x="720" y="520" width="120" height="60" as="geometry" />
        </mxCell>
        <mxCell id="RAt86igsW2J8RpWUPt7G-42" value="" style="ellipse;html=1;shape=endState;fillColor=#000000;strokeColor=default;" vertex="1" parent="1">
          <mxGeometry x="765" y="610" width="30" height="30" as="geometry" />
        </mxCell>
        <mxCell id="RAt86igsW2J8RpWUPt7G-43" value="" style="endArrow=open;endFill=1;endSize=12;html=1;rounded=0;entryX=0.5;entryY=0;entryDx=0;entryDy=0;" edge="1" parent="1">
          <mxGeometry width="160" relative="1" as="geometry">
            <mxPoint x="780" y="580" as="sourcePoint" />
            <mxPoint x="780" y="610" as="targetPoint" />
          </mxGeometry>
        </mxCell>
        <mxCell id="RAt86igsW2J8RpWUPt7G-45" value="Отображает информацию только по выбранной персоне" style="rounded=1;whiteSpace=wrap;html=1;" vertex="1" parent="1">
          <mxGeometry x="520" y="700" width="140" height="80" as="geometry" />
        </mxCell>
      </root>
    </mxGraphModel>
  </diagram>
</mxfile>
